Coordinates
version=1
nRows=4
nColumns=107
inDegrees=yes

Units are S.I. units (second, meters, Newtons, ...)
If the header above contains a line with 'inDegrees', this indicates whether rotational values are in degrees (yes) or radians (no).

endheader
time	sternoclavicular_r2	sternoclavicular_r3	unrotscap_r3	unrotscap_r2	acromioclavicular_r2	acromioclavicular_r3	acromioclavicular_r1	unrothum_r1	unrothum_r3	unrothum_r2	elv_angle	shoulder_elv	shoulder1_r2	shoulder_rot	elbow_flexion	pro_sup	deviation	flexion	proximal_distal_r1	proximal_distal_r3	cmc_flexion	cmc_abduction	mp_flexion	ip_flexion	mcp2_flexion	mcp2_abduction	pm2_flexion	md2_flexion	mcp3_flexion	mcp3_abduction	pm3_flexion	md3_flexion	mcp4_flexion	mcp4_abduction	pm4_flexion	md4_flexion	mcp5_flexion	mcp5_abduction	pm5_flexion	md5_flexion	bicpt_tx	bicpt_ty	bicpt_tz	bicpt2_tx	bicpt2_ty	bicpt2_tz	ptpt_tx	ptpt_ty	ptpt_tz	FCUpt_tx	FCUpt_ty	FCUpt_tz	EDCpt_tx	EDCpt_ty	EDCpt_tz	APLpt_tx	APLpt_ty	APLpt_tz	FPLpt_tx	FPLpt_ty	FPLpt_tz	FPLpt2_tx	FPLpt2_ty	FPLpt2_tz	PEC1pt2_tx	PEC1pt2_ty	PEC1pt2_tz	PEC1pt3_tx	PEC1pt3_ty	PEC1pt3_tz	PEC2pt2_tx	PEC2pt2_ty	PEC2pt2_tz	PEC2pt3_tx	PEC2pt3_ty	PEC2pt3_tz	PEC3pt2_tx	PEC3pt2_ty	PEC3pt2_tz	PEC3pt3_tx	PEC3pt3_ty	PEC3pt3_tz	DELT2pt2a_tx	DELT2pt2a_ty	DELT2pt2a_tz	DELT2pt2_tx	DELT2pt2_ty	DELT2pt2_tz	LAT1pt2_tx	LAT1pt2_ty	LAT1pt2_tz	LAT1pt3_tx	LAT1pt3_ty	LAT1pt3_tz	LAT2pt2_tx	LAT2pt2_ty	LAT2pt2_tz	LAT2pt3_tx	LAT2pt3_ty	LAT2pt3_tz	LAT3pt2_tx	LAT3pt2_ty	LAT3pt2_tz	LAT3pt3_tx	LAT3pt3_ty	LAT3pt3_tz
      0.46666667	     -0.31577364	      0.13374681	     -0.13374681	      0.31577364	     -0.06393774	      0.51672232	      0.23226312	     -0.23226312	     -0.51672232	      0.06393774	    101.14783552	     74.76221635	     -1.76536276	    -35.32697489	     30.69114605	     81.38351442	      0.31907227	     -0.68050344	      0.34969618	     -0.34025172	     32.60836744	    -23.00462316	    -15.41091226	      6.86512288	    104.68136983	     12.82330342	     67.07270881	     45.09465938	     97.37579012	      0.92795637	     75.53158074	     47.25403259	     92.28004232	    -13.45824298	     85.98100163	     43.33220284	     96.79658664	    -14.21193869	     81.07736112	      5.54786861	      0.00091517	     -0.03111767	     -0.00486661	      0.01469280	     -0.01853740	     -0.00185171	      0.00153668	     -0.06878831	     -0.00660588	      0.01221096	     -0.18239105	     -0.00003535	     -0.00976600	      0.00332796	     -0.00061474	      0.00030849	      0.00012340	      0.00061698	      0.00039487	      0.00118461	      0.00066634	     -0.00001142	     -0.00022452	     -0.00026942	      0.00245054	      0.00859766	      0.00598098	     -0.00801618	      0.01935512	     -0.01835829	      0.00245054	      0.00859766	      0.00598098	      0.00053995	      0.01794295	     -0.00942835	      0.00389440	      0.00478105	      0.01583528	      0.00000000	      0.00747315	      0.00000000	     -0.00701935	     -0.03243852	     -0.00616018	      0.02104973	     -0.00094269	     -0.01025594	     -0.00087223	      0.01462018	     -0.00598098	      0.00240901	      0.02109958	     -0.01744453	     -0.00585638	      0.01266805	     -0.00535796	     -0.01221117	      0.02674828	     -0.02994645	     -0.02292710	      0.01416330	     -0.00718549	     -0.01520166	      0.03090174	     -0.03742267
      0.50000000	     -0.31578084	      0.13374986	     -0.13374986	      0.31578084	     -0.06393920	      0.51673409	      0.23226842	     -0.23226842	     -0.51673409	      0.06393920	    101.13884970	     74.76391978	     -1.76520593	    -35.33067694	     30.68480194	     81.38348398	      0.31907442	     -0.68049279	      0.34969795	     -0.34024640	     32.60783676	    -23.00467956	    -15.41130059	      6.86499693	    104.68054764	     12.82341186	     67.07256635	     45.09458808	     97.37529991	      0.92793502	     75.53148464	     47.25402014	     92.28002869	    -13.45819277	     85.98098811	     43.33222262	     96.79643237	    -14.21187760	     81.07735136	      5.54788049	      0.00091496	     -0.03111695	     -0.00486649	      0.01469273	     -0.01853568	     -0.00185167	      0.00153668	     -0.06878831	     -0.00660588	      0.01221096	     -0.18239104	     -0.00003533	     -0.00976600	      0.00332797	     -0.00061476	      0.00030844	      0.00012338	      0.00061688	      0.00039480	      0.00118441	      0.00066623	     -0.00001141	     -0.00022449	     -0.00026939	      0.00245060	      0.00859786	      0.00598112	     -0.00801636	      0.01935556	     -0.01835871	      0.00245060	      0.00859786	      0.00598112	      0.00053996	      0.01794336	     -0.00942857	      0.00389447	      0.00478116	      0.01583544	      0.00000000	      0.00747350	      0.00000000	     -0.00701951	     -0.03243926	     -0.00616047	      0.02105106	     -0.00094282	     -0.01025800	     -0.00087225	      0.01462051	     -0.00598112	      0.00240906	      0.02110006	     -0.01744493	     -0.00585651	      0.01266834	     -0.00535809	     -0.01221145	      0.02674889	     -0.02994713	     -0.02292762	      0.01416362	     -0.00718565	     -0.01520201	      0.03090245	     -0.03742353
      0.53333333	     -0.31634859	      0.13399033	     -0.13399033	      0.31634859	     -0.06405415	      0.51766314	      0.23268602	     -0.23268602	     -0.51766314	      0.06405415	    100.92944250	     74.89833999	     -1.76155108	    -34.46751476	     30.71052372	     80.96202007	      0.33400087	     -0.64602580	      0.36197659	     -0.32301290	     32.43900981	    -23.01154874	    -15.31430592	      6.50959588	    104.24065933	     12.85206681	     67.69296207	     43.48864603	     97.21445759	      0.90199199	     75.55887991	     47.24424517	     92.24739975	    -13.45253936	     85.93856482	     44.01950599	     96.63994283	    -14.21194488	     81.30633665	      5.54084595	      0.00091581	     -0.03111990	     -0.00486696	      0.01473166	     -0.01854266	     -0.00192100	      0.00156782	     -0.06876818	     -0.00657193	      0.01216317	     -0.18240474	     -0.00004541	     -0.00971542	      0.00330546	     -0.00060232	      0.00031147	      0.00012459	      0.00062294	      0.00039868	      0.00119604	      0.00067277	     -0.00001127	     -0.00022638	     -0.00027165	      0.00245500	      0.00861332	      0.00599187	     -0.00803077	      0.01939036	     -0.01839172	      0.00245500	      0.00861332	      0.00599187	      0.00054093	      0.01797562	     -0.00944552	      0.00389962	      0.00478976	      0.01584831	      0.00000000	      0.00750057	      0.00000000	     -0.00703213	     -0.03249758	     -0.00618295	      0.02072498	     -0.00091227	     -0.00979007	     -0.00087381	      0.01464680	     -0.00599187	      0.00241339	      0.02113799	     -0.01747629	     -0.00586704	      0.01269112	     -0.00536772	     -0.01223341	      0.02679698	     -0.03000097	     -0.02296884	      0.01418909	     -0.00719857	     -0.01522934	      0.03095801	     -0.03749081
      0.56666667	     -0.31489475	      0.13337455	     -0.13337455	      0.31489475	     -0.06375978	      0.51528412	      0.23161667	     -0.23161667	     -0.51528412	      0.06375978	    101.43365466	     74.55413025	     -1.77035125	    -36.61625920	     30.73709059	     82.31631213	      0.31130704	     -0.68801502	      0.34316445	     -0.34400751	     32.54039945	    -22.97732174	    -15.61096376	      6.77177633	    104.37782417	     12.81736672	     66.83047696	     45.46516080	     97.26848199	      0.90051636	     75.57181980	     47.11674394	     92.07262265	    -13.44974590	     86.25637666	     43.98637095	     96.68691867	    -14.21181656	     81.24804939	      5.56838384	      0.00091669	     -0.03112294	     -0.00486745	      0.01460517	     -0.01854988	     -0.00169735	      0.00146775	     -0.06883288	     -0.00668102	      0.01231693	     -0.18236055	     -0.00001256	     -0.00987793	      0.00337796	     -0.00064261	      0.00030752	      0.00012301	      0.00061504	      0.00039363	      0.00118088	      0.00066424	     -0.00001136	     -0.00022526	     -0.00027031	      0.00244372	      0.00857373	      0.00596434	     -0.00799387	      0.01930125	     -0.01830720	      0.00244372	      0.00857373	      0.00596434	      0.00053845	      0.01789301	     -0.00940211	      0.00388641	      0.00476774	      0.01581526	      0.00000000	      0.00743134	      0.00000000	     -0.00699981	     -0.03234824	     -0.00612546	      0.02151825	     -0.00098864	     -0.01096896	     -0.00086980	      0.01457949	     -0.00596434	      0.00240230	      0.02104085	     -0.01739598	     -0.00584008	      0.01263279	     -0.00534305	     -0.01217718	      0.02667383	     -0.02986310	     -0.02286329	      0.01412388	     -0.00716549	     -0.01515935	      0.03081573	     -0.03731852
